<mxfile host="app.diagrams.net" modified="2023-08-28T06:44:03.775Z" agent="Mozilla/5.0 (Windows NT 10.0; Win64; x64) AppleWebKit/537.36 (KHTML, like Gecko) Chrome/115.0.0.0 Safari/537.36 OPR/101.0.0.0" etag="MRm6VX8cxRGVtHmWR1g3" version="21.6.9" type="github">
  <diagram name="Page-1" id="_Gholo84nZcUQhtDPIk-">
    <mxGraphModel dx="1295" dy="823" grid="1" gridSize="10" guides="1" tooltips="1" connect="1" arrows="1" fold="1" page="1" pageScale="1" pageWidth="850" pageHeight="1100" math="0" shadow="0">
      <root>
        <mxCell id="0" />
        <mxCell id="1" parent="0" />
      </root>
    </mxGraphModel>
  </diagram>
</mxfile>
